<svg xmlns="http://www.w3.org/2000/svg" version="1.1" xmlnsXlink="http://www.w3.org/1999/xlink" xmlnsSvgjs="http://svgjs.dev/svgjs" width="100%" height="100%" viewBox="0 270 700 500"><rect width="200" height="200" fill="#FFFFFF"></rect><g transform="matrix(0.7,0,0,0.7,149.57575757575756,437.09112929065293)"><svg viewBox="0 0 396 71" data-background-color="#ffffff" preserveAspectRatio="xMidYMid meet" height="179" width="1000" xmlns="http://www.w3.org/2000/svg" xmlnsXlink="http://www.w3.org/1999/xlink"><g id="tight-bounds" transform="matrix(1,0,0,1,0.2400000000000091,0.1466865152725063)"><svg viewBox="0 0 395.52 70.706626969455" height="70.706626969455" width="395.52"><g><svg viewBox="0 0 548.6286679332131 98.0776763963964" height="70.706626969455" width="395.52"><g transform="matrix(1,0,0,1,153.1086679332132,1.7268862462462522)"><svg viewBox="0 0 395.52 94.6239039039039" height="94.6239039039039" width="395.52"><g id="textblocktransform"><svg viewBox="0 0 395.52 94.6239039039039" height="94.6239039039039" width="395.52" id="textblock"><g><svg viewBox="0 0 395.52 94.6239039039039" height="94.6239039039039" width="395.52"><g transform="matrix(1,0,0,1,0,0)"><svg width="395.52" viewBox="0.25 -35.85 149.84 35.85" height="94.6239039039039" data-palette-color="#31c48d"><path d="M0.25 0L13.35-35.5 20.35-35.5 33.4 0 26.3 0 23-8.85 10.6-8.85 7.35 0 0.25 0ZM11.75-13.7L21.75-13.7 16.85-28.35 11.75-13.7ZM60.3-35.5L67.15-35.5 67.15 0 60.3 0 60.3-15.15 44.2-15.15 44.2 0 37.3 0 37.3-35.5 44.2-35.5 44.2-21.15 60.3-21.15 60.3-35.5ZM97.55-35.5L104.4-35.5 104.4 0 97.55 0 97.55-15.15 81.44-15.15 81.44 0 74.55 0 74.55-35.5 81.44-35.5 81.44-21.15 97.55-21.15 97.55-35.5ZM138.34-35.5L138.34-29.45 126.99-29.45 126.99 0 120.14 0 120.14-29.45 108.79-29.45 108.79-35.5 138.34-35.5ZM150.09-13.35L143.39-13.35 143.39-35.85 150.09-35.85 150.09-13.35ZM150.09 0L143.39 0 143.39-7.55 150.09-7.55 150.09 0Z" opacity="1" transform="matrix(1,0,0,1,0,0)" fill="#FFFFFF" class="undefined-text-0" data-fill-palette-color="primary" id="text-0"></path></svg></g></svg></g></svg></g></svg></g><g><svg viewBox="0 0 130.7702351951952 98.0776763963964" height="98.0776763963964" width="130.7702351951952"><g><svg xmlns="http://www.w3.org/2000/svg" xmlnsXlink="http://www.w3.org/1999/xlink" version="1.1" x="0" y="0" viewBox="10 20 80 60" enable-background="new 0 0 100 100" xml:space="preserve" height="98.0776763963964" width="130.7702351951952" class="icon-icon-0" data-fill-palette-color="accent" id="icon-0"><g fill="#FFFFFF" data-fill-palette-color="accent"><path d="M70 20c-11 0-20 8.96-20 20v20c0-11-9-20-20-20s-20 8.96-20 20v20c11.05 0 20-8.96 20-20 0 11 9 20 20 20 11.05 0 20-8.96 20-20V40h20C90 29 81.04 20 70 20zM75 29c-1.1 0-2-0.9-2-2s0.9-2 2-2 2 0.9 2 2S76.1 29 75 29z" fill="#FFFFFF" data-fill-palette-color="accent"></path></g></svg></g></svg></g></svg></g><defs></defs></svg><rect width="395.52" height="70.706626969455" fill="none" stroke="none" visibility="hidden"></rect></g></svg></g></svg>